<mxfile host="app.diagrams.net" agent="Mozilla/5.0 (Windows NT 10.0; Win64; x64) AppleWebKit/537.36 (KHTML, like Gecko) Chrome/131.0.0.0 Safari/537.36" version="26.0.6">
  <diagram name="‫עמוד-1‬" id="Z2tfbFlwTh_caJZ5rbXN">
    <mxGraphModel dx="1938" dy="1160" grid="1" gridSize="10" guides="1" tooltips="1" connect="1" arrows="1" fold="1" page="0" pageScale="1" pageWidth="827" pageHeight="1169" math="0" shadow="0">
      <root>
        <mxCell id="0" />
        <mxCell id="1" parent="0" />
        <mxCell id="pR12mr9345Ex5hHzO_5S-36" style="edgeStyle=orthogonalEdgeStyle;rounded=0;orthogonalLoop=1;jettySize=auto;html=1;exitX=1;exitY=0.5;exitDx=0;exitDy=0;" edge="1" parent="1" source="pR12mr9345Ex5hHzO_5S-11" target="pR12mr9345Ex5hHzO_5S-35">
          <mxGeometry relative="1" as="geometry" />
        </mxCell>
        <mxCell id="pR12mr9345Ex5hHzO_5S-11" value="&lt;b&gt;repeats&lt;/b&gt;" style="rounded=0;whiteSpace=wrap;html=1;fontSize=21;fillColor=#e51400;fontColor=light-dark(#FFFFFF,#FFFFFF);strokeColor=default;" vertex="1" parent="1">
          <mxGeometry x="345" y="220" width="120" height="60" as="geometry" />
        </mxCell>
        <mxCell id="pR12mr9345Ex5hHzO_5S-29" style="edgeStyle=orthogonalEdgeStyle;rounded=0;orthogonalLoop=1;jettySize=auto;html=1;exitX=1;exitY=0.5;exitDx=0;exitDy=0;" edge="1" parent="1" source="pR12mr9345Ex5hHzO_5S-12" target="pR12mr9345Ex5hHzO_5S-25">
          <mxGeometry relative="1" as="geometry" />
        </mxCell>
        <mxCell id="pR12mr9345Ex5hHzO_5S-12" value="&lt;b&gt;lyrics&lt;/b&gt;" style="rounded=0;whiteSpace=wrap;html=1;fontSize=21;fillColor=#0050ef;fontColor=light-dark(#FFFFFF,#FFFFFF);strokeColor=#001DBC;" vertex="1" parent="1">
          <mxGeometry x="70" y="40" width="240" height="60" as="geometry" />
        </mxCell>
        <mxCell id="pR12mr9345Ex5hHzO_5S-28" style="edgeStyle=orthogonalEdgeStyle;rounded=0;orthogonalLoop=1;jettySize=auto;html=1;exitX=1;exitY=0.5;exitDx=0;exitDy=0;" edge="1" parent="1" source="pR12mr9345Ex5hHzO_5S-15" target="pR12mr9345Ex5hHzO_5S-27">
          <mxGeometry relative="1" as="geometry" />
        </mxCell>
        <mxCell id="pR12mr9345Ex5hHzO_5S-15" value="&lt;b&gt;chords&lt;/b&gt;" style="rounded=0;whiteSpace=wrap;html=1;fontSize=21;fillColor=#0050ef;fontColor=light-dark(#FFFFFF,#FFFFFF);strokeColor=#001DBC;" vertex="1" parent="1">
          <mxGeometry x="70" y="100" width="240" height="60" as="geometry" />
        </mxCell>
        <mxCell id="pR12mr9345Ex5hHzO_5S-16" value="&lt;b&gt;lyrics&lt;/b&gt;" style="rounded=0;whiteSpace=wrap;html=1;fontSize=21;fillColor=#0050ef;fontColor=light-dark(#FFFFFF,#FFFFFF);strokeColor=#001DBC;" vertex="1" parent="1">
          <mxGeometry x="70" y="220" width="120" height="60" as="geometry" />
        </mxCell>
        <mxCell id="pR12mr9345Ex5hHzO_5S-33" style="edgeStyle=orthogonalEdgeStyle;rounded=0;orthogonalLoop=1;jettySize=auto;html=1;exitX=1;exitY=0.5;exitDx=0;exitDy=0;" edge="1" parent="1" source="pR12mr9345Ex5hHzO_5S-17" target="pR12mr9345Ex5hHzO_5S-11">
          <mxGeometry relative="1" as="geometry" />
        </mxCell>
        <mxCell id="pR12mr9345Ex5hHzO_5S-17" value="&lt;b&gt;chords&lt;/b&gt;" style="rounded=0;whiteSpace=wrap;html=1;fontSize=21;fillColor=#0050ef;fontColor=light-dark(#FFFFFF,#FFFFFF);strokeColor=#001DBC;" vertex="1" parent="1">
          <mxGeometry x="190" y="220" width="120" height="60" as="geometry" />
        </mxCell>
        <mxCell id="pR12mr9345Ex5hHzO_5S-18" value="&lt;b&gt;lyrics&lt;/b&gt;" style="rounded=0;whiteSpace=wrap;html=1;fontSize=21;fillColor=#0050ef;fontColor=light-dark(#FFFFFF,#FFFFFF);strokeColor=#001DBC;" vertex="1" parent="1">
          <mxGeometry x="70" y="340" width="120" height="60" as="geometry" />
        </mxCell>
        <mxCell id="pR12mr9345Ex5hHzO_5S-45" style="edgeStyle=orthogonalEdgeStyle;rounded=0;orthogonalLoop=1;jettySize=auto;html=1;exitX=1;exitY=0.5;exitDx=0;exitDy=0;" edge="1" parent="1" source="pR12mr9345Ex5hHzO_5S-19" target="pR12mr9345Ex5hHzO_5S-40">
          <mxGeometry relative="1" as="geometry" />
        </mxCell>
        <mxCell id="pR12mr9345Ex5hHzO_5S-19" value="&lt;b&gt;chords&lt;/b&gt;" style="rounded=0;whiteSpace=wrap;html=1;fontSize=21;fillColor=#0050ef;fontColor=light-dark(#FFFFFF,#FFFFFF);strokeColor=#001DBC;" vertex="1" parent="1">
          <mxGeometry x="190" y="340" width="120" height="60" as="geometry" />
        </mxCell>
        <mxCell id="pR12mr9345Ex5hHzO_5S-47" style="edgeStyle=orthogonalEdgeStyle;rounded=0;orthogonalLoop=1;jettySize=auto;html=1;exitX=1;exitY=0.5;exitDx=0;exitDy=0;" edge="1" parent="1" source="pR12mr9345Ex5hHzO_5S-20" target="pR12mr9345Ex5hHzO_5S-46">
          <mxGeometry relative="1" as="geometry" />
        </mxCell>
        <mxCell id="pR12mr9345Ex5hHzO_5S-20" value="&lt;b&gt;tabs&lt;/b&gt;" style="rounded=0;whiteSpace=wrap;html=1;fontSize=21;fillColor=#0050ef;fontColor=light-dark(#FFFFFF,#FFFFFF);strokeColor=#001DBC;" vertex="1" parent="1">
          <mxGeometry x="70" y="400" width="240" height="60" as="geometry" />
        </mxCell>
        <mxCell id="pR12mr9345Ex5hHzO_5S-21" value="&lt;b&gt;lyrics&lt;/b&gt;" style="rounded=0;whiteSpace=wrap;html=1;fontSize=21;" vertex="1" parent="1">
          <mxGeometry x="490" y="30" width="120" height="60" as="geometry" />
        </mxCell>
        <mxCell id="pR12mr9345Ex5hHzO_5S-22" value="&lt;b&gt;chord&lt;/b&gt;&lt;div&gt;&lt;b&gt;center pos&lt;/b&gt;&lt;/div&gt;" style="rounded=0;whiteSpace=wrap;html=1;fontSize=21;" vertex="1" parent="1">
          <mxGeometry x="490" y="110" width="120" height="60" as="geometry" />
        </mxCell>
        <mxCell id="pR12mr9345Ex5hHzO_5S-31" style="edgeStyle=orthogonalEdgeStyle;rounded=0;orthogonalLoop=1;jettySize=auto;html=1;exitX=1;exitY=0.5;exitDx=0;exitDy=0;" edge="1" parent="1" source="pR12mr9345Ex5hHzO_5S-25" target="pR12mr9345Ex5hHzO_5S-21">
          <mxGeometry relative="1" as="geometry" />
        </mxCell>
        <mxCell id="pR12mr9345Ex5hHzO_5S-25" value="&lt;b&gt;repeats&lt;/b&gt;" style="rounded=0;whiteSpace=wrap;html=1;fontSize=21;fillColor=#e51400;fontColor=light-dark(#FFFFFF,#FFFFFF);strokeColor=default;" vertex="1" parent="1">
          <mxGeometry x="345" y="30" width="120" height="60" as="geometry" />
        </mxCell>
        <mxCell id="pR12mr9345Ex5hHzO_5S-30" style="edgeStyle=orthogonalEdgeStyle;rounded=0;orthogonalLoop=1;jettySize=auto;html=1;exitX=1;exitY=0.5;exitDx=0;exitDy=0;" edge="1" parent="1" source="pR12mr9345Ex5hHzO_5S-27" target="pR12mr9345Ex5hHzO_5S-22">
          <mxGeometry relative="1" as="geometry" />
        </mxCell>
        <mxCell id="pR12mr9345Ex5hHzO_5S-27" value="&lt;b&gt;repeats&lt;/b&gt;" style="rounded=0;whiteSpace=wrap;html=1;fontSize=21;fillColor=#e51400;fontColor=light-dark(#FFFFFF,#FFFFFF);strokeColor=default;" vertex="1" parent="1">
          <mxGeometry x="345" y="110" width="120" height="60" as="geometry" />
        </mxCell>
        <mxCell id="pR12mr9345Ex5hHzO_5S-38" style="edgeStyle=orthogonalEdgeStyle;rounded=0;orthogonalLoop=1;jettySize=auto;html=1;exitX=1;exitY=0.5;exitDx=0;exitDy=0;" edge="1" parent="1" source="pR12mr9345Ex5hHzO_5S-35" target="pR12mr9345Ex5hHzO_5S-37">
          <mxGeometry relative="1" as="geometry" />
        </mxCell>
        <mxCell id="pR12mr9345Ex5hHzO_5S-35" value="&lt;b&gt;chord&lt;/b&gt;&lt;div&gt;&lt;b&gt;start pos&lt;/b&gt;&lt;/div&gt;" style="rounded=0;whiteSpace=wrap;html=1;fontSize=21;" vertex="1" parent="1">
          <mxGeometry x="490" y="220" width="120" height="60" as="geometry" />
        </mxCell>
        <mxCell id="pR12mr9345Ex5hHzO_5S-37" value="&lt;b&gt;lyrics&lt;/b&gt;" style="rounded=0;whiteSpace=wrap;html=1;fontSize=21;" vertex="1" parent="1">
          <mxGeometry x="640" y="220" width="120" height="60" as="geometry" />
        </mxCell>
        <mxCell id="pR12mr9345Ex5hHzO_5S-39" style="edgeStyle=orthogonalEdgeStyle;rounded=0;orthogonalLoop=1;jettySize=auto;html=1;exitX=1;exitY=0.5;exitDx=0;exitDy=0;" edge="1" parent="1" source="pR12mr9345Ex5hHzO_5S-40" target="pR12mr9345Ex5hHzO_5S-43">
          <mxGeometry relative="1" as="geometry" />
        </mxCell>
        <mxCell id="pR12mr9345Ex5hHzO_5S-40" value="&lt;b&gt;repeats&lt;/b&gt;" style="rounded=0;whiteSpace=wrap;html=1;fontSize=21;fillColor=#e51400;fontColor=light-dark(#FFFFFF,#FFFFFF);strokeColor=default;" vertex="1" parent="1">
          <mxGeometry x="345" y="330" width="120" height="60" as="geometry" />
        </mxCell>
        <mxCell id="pR12mr9345Ex5hHzO_5S-42" style="edgeStyle=orthogonalEdgeStyle;rounded=0;orthogonalLoop=1;jettySize=auto;html=1;exitX=1;exitY=0.5;exitDx=0;exitDy=0;" edge="1" parent="1" source="pR12mr9345Ex5hHzO_5S-43" target="pR12mr9345Ex5hHzO_5S-44">
          <mxGeometry relative="1" as="geometry" />
        </mxCell>
        <mxCell id="pR12mr9345Ex5hHzO_5S-43" value="&lt;b&gt;chord&lt;/b&gt;&lt;div&gt;&lt;b&gt;start pos&lt;/b&gt;&lt;/div&gt;" style="rounded=0;whiteSpace=wrap;html=1;fontSize=21;" vertex="1" parent="1">
          <mxGeometry x="490" y="330" width="120" height="60" as="geometry" />
        </mxCell>
        <mxCell id="pR12mr9345Ex5hHzO_5S-44" value="&lt;b&gt;lyrics&lt;/b&gt;" style="rounded=0;whiteSpace=wrap;html=1;fontSize=21;" vertex="1" parent="1">
          <mxGeometry x="640" y="330" width="120" height="60" as="geometry" />
        </mxCell>
        <mxCell id="pR12mr9345Ex5hHzO_5S-49" style="edgeStyle=orthogonalEdgeStyle;rounded=0;orthogonalLoop=1;jettySize=auto;html=1;exitX=1;exitY=0.5;exitDx=0;exitDy=0;" edge="1" parent="1" source="pR12mr9345Ex5hHzO_5S-46" target="pR12mr9345Ex5hHzO_5S-48">
          <mxGeometry relative="1" as="geometry" />
        </mxCell>
        <mxCell id="pR12mr9345Ex5hHzO_5S-46" value="&lt;b&gt;repeats&lt;/b&gt;" style="rounded=0;whiteSpace=wrap;html=1;fontSize=21;fillColor=#e51400;fontColor=light-dark(#FFFFFF,#FFFFFF);strokeColor=default;" vertex="1" parent="1">
          <mxGeometry x="345" y="410" width="120" height="60" as="geometry" />
        </mxCell>
        <mxCell id="pR12mr9345Ex5hHzO_5S-48" value="&lt;b&gt;tabs&lt;/b&gt;" style="rounded=0;whiteSpace=wrap;html=1;fontSize=21;" vertex="1" parent="1">
          <mxGeometry x="490" y="410" width="120" height="60" as="geometry" />
        </mxCell>
        <mxCell id="pR12mr9345Ex5hHzO_5S-55" style="edgeStyle=orthogonalEdgeStyle;rounded=0;orthogonalLoop=1;jettySize=auto;html=1;exitX=1;exitY=0.5;exitDx=0;exitDy=0;" edge="1" parent="1" source="pR12mr9345Ex5hHzO_5S-51" target="pR12mr9345Ex5hHzO_5S-54">
          <mxGeometry relative="1" as="geometry" />
        </mxCell>
        <mxCell id="pR12mr9345Ex5hHzO_5S-51" value="&lt;b&gt;lyrics&lt;/b&gt;" style="rounded=0;whiteSpace=wrap;html=1;fontSize=21;fillColor=#0050ef;fontColor=light-dark(#FFFFFF,#FFFFFF);strokeColor=#001DBC;" vertex="1" parent="1">
          <mxGeometry x="70" y="520" width="240" height="60" as="geometry" />
        </mxCell>
        <mxCell id="pR12mr9345Ex5hHzO_5S-52" value="&lt;b&gt;lyrics&lt;/b&gt;" style="rounded=0;whiteSpace=wrap;html=1;fontSize=21;" vertex="1" parent="1">
          <mxGeometry x="490" y="520" width="120" height="60" as="geometry" />
        </mxCell>
        <mxCell id="pR12mr9345Ex5hHzO_5S-53" style="edgeStyle=orthogonalEdgeStyle;rounded=0;orthogonalLoop=1;jettySize=auto;html=1;exitX=1;exitY=0.5;exitDx=0;exitDy=0;" edge="1" source="pR12mr9345Ex5hHzO_5S-54" target="pR12mr9345Ex5hHzO_5S-52" parent="1">
          <mxGeometry relative="1" as="geometry" />
        </mxCell>
        <mxCell id="pR12mr9345Ex5hHzO_5S-54" value="&lt;b&gt;repeats&lt;/b&gt;" style="rounded=0;whiteSpace=wrap;html=1;fontSize=21;fillColor=#e51400;fontColor=light-dark(#FFFFFF,#FFFFFF);strokeColor=default;" vertex="1" parent="1">
          <mxGeometry x="345" y="520" width="120" height="60" as="geometry" />
        </mxCell>
        <mxCell id="pR12mr9345Ex5hHzO_5S-60" style="edgeStyle=orthogonalEdgeStyle;rounded=0;orthogonalLoop=1;jettySize=auto;html=1;exitX=1;exitY=0.5;exitDx=0;exitDy=0;" edge="1" parent="1" source="pR12mr9345Ex5hHzO_5S-56" target="pR12mr9345Ex5hHzO_5S-59">
          <mxGeometry relative="1" as="geometry" />
        </mxCell>
        <mxCell id="pR12mr9345Ex5hHzO_5S-56" value="&lt;b&gt;chords&lt;/b&gt;" style="rounded=0;whiteSpace=wrap;html=1;fontSize=21;fillColor=#0050ef;fontColor=light-dark(#FFFFFF,#FFFFFF);strokeColor=#001DBC;" vertex="1" parent="1">
          <mxGeometry x="70" y="640" width="240" height="60" as="geometry" />
        </mxCell>
        <mxCell id="pR12mr9345Ex5hHzO_5S-57" value="&lt;b&gt;chords&lt;/b&gt;&lt;div&gt;&lt;div&gt;&lt;b&gt;no pos&lt;/b&gt;&lt;/div&gt;&lt;/div&gt;" style="rounded=0;whiteSpace=wrap;html=1;fontSize=21;" vertex="1" parent="1">
          <mxGeometry x="490" y="640" width="120" height="60" as="geometry" />
        </mxCell>
        <mxCell id="pR12mr9345Ex5hHzO_5S-58" style="edgeStyle=orthogonalEdgeStyle;rounded=0;orthogonalLoop=1;jettySize=auto;html=1;exitX=1;exitY=0.5;exitDx=0;exitDy=0;" edge="1" source="pR12mr9345Ex5hHzO_5S-59" target="pR12mr9345Ex5hHzO_5S-57" parent="1">
          <mxGeometry relative="1" as="geometry" />
        </mxCell>
        <mxCell id="pR12mr9345Ex5hHzO_5S-59" value="&lt;b&gt;repeats&lt;/b&gt;" style="rounded=0;whiteSpace=wrap;html=1;fontSize=21;fillColor=#e51400;fontColor=light-dark(#FFFFFF,#FFFFFF);strokeColor=default;" vertex="1" parent="1">
          <mxGeometry x="345" y="640" width="120" height="60" as="geometry" />
        </mxCell>
        <mxCell id="pR12mr9345Ex5hHzO_5S-65" style="edgeStyle=orthogonalEdgeStyle;rounded=0;orthogonalLoop=1;jettySize=auto;html=1;exitX=1;exitY=0.5;exitDx=0;exitDy=0;" edge="1" parent="1" source="pR12mr9345Ex5hHzO_5S-61" target="pR12mr9345Ex5hHzO_5S-64">
          <mxGeometry relative="1" as="geometry" />
        </mxCell>
        <mxCell id="pR12mr9345Ex5hHzO_5S-61" value="&lt;b&gt;tabs&lt;/b&gt;" style="rounded=0;whiteSpace=wrap;html=1;fontSize=21;fillColor=#0050ef;fontColor=light-dark(#FFFFFF,#FFFFFF);strokeColor=#001DBC;" vertex="1" parent="1">
          <mxGeometry x="70" y="760" width="240" height="60" as="geometry" />
        </mxCell>
        <mxCell id="pR12mr9345Ex5hHzO_5S-62" value="&lt;b&gt;tabs&lt;/b&gt;" style="rounded=0;whiteSpace=wrap;html=1;fontSize=21;" vertex="1" parent="1">
          <mxGeometry x="490" y="760" width="120" height="60" as="geometry" />
        </mxCell>
        <mxCell id="pR12mr9345Ex5hHzO_5S-63" style="edgeStyle=orthogonalEdgeStyle;rounded=0;orthogonalLoop=1;jettySize=auto;html=1;exitX=1;exitY=0.5;exitDx=0;exitDy=0;" edge="1" source="pR12mr9345Ex5hHzO_5S-64" target="pR12mr9345Ex5hHzO_5S-62" parent="1">
          <mxGeometry relative="1" as="geometry" />
        </mxCell>
        <mxCell id="pR12mr9345Ex5hHzO_5S-64" value="&lt;b&gt;repeats&lt;/b&gt;" style="rounded=0;whiteSpace=wrap;html=1;fontSize=21;fillColor=#e51400;fontColor=light-dark(#FFFFFF,#FFFFFF);strokeColor=default;" vertex="1" parent="1">
          <mxGeometry x="345" y="760" width="120" height="60" as="geometry" />
        </mxCell>
        <mxCell id="pR12mr9345Ex5hHzO_5S-66" style="edgeStyle=orthogonalEdgeStyle;rounded=0;orthogonalLoop=1;jettySize=auto;html=1;exitX=1;exitY=0.5;exitDx=0;exitDy=0;" edge="1" parent="1" source="pR12mr9345Ex5hHzO_5S-67" target="pR12mr9345Ex5hHzO_5S-70">
          <mxGeometry relative="1" as="geometry" />
        </mxCell>
        <mxCell id="pR12mr9345Ex5hHzO_5S-67" value="&lt;b&gt;tabs&lt;/b&gt;" style="rounded=0;whiteSpace=wrap;html=1;fontSize=21;fillColor=#0050ef;fontColor=light-dark(#FFFFFF,#FFFFFF);strokeColor=#001DBC;" vertex="1" parent="1">
          <mxGeometry x="70" y="820" width="240" height="60" as="geometry" />
        </mxCell>
        <mxCell id="pR12mr9345Ex5hHzO_5S-68" value="&lt;b&gt;tabs&lt;/b&gt;" style="rounded=0;whiteSpace=wrap;html=1;fontSize=21;" vertex="1" parent="1">
          <mxGeometry x="490" y="820" width="120" height="60" as="geometry" />
        </mxCell>
        <mxCell id="pR12mr9345Ex5hHzO_5S-69" style="edgeStyle=orthogonalEdgeStyle;rounded=0;orthogonalLoop=1;jettySize=auto;html=1;exitX=1;exitY=0.5;exitDx=0;exitDy=0;" edge="1" parent="1" source="pR12mr9345Ex5hHzO_5S-70" target="pR12mr9345Ex5hHzO_5S-68">
          <mxGeometry relative="1" as="geometry" />
        </mxCell>
        <mxCell id="pR12mr9345Ex5hHzO_5S-70" value="&lt;b&gt;repeats&lt;/b&gt;" style="rounded=0;whiteSpace=wrap;html=1;fontSize=21;fillColor=#e51400;fontColor=light-dark(#FFFFFF,#FFFFFF);strokeColor=default;" vertex="1" parent="1">
          <mxGeometry x="345" y="820" width="120" height="60" as="geometry" />
        </mxCell>
        <mxCell id="pR12mr9345Ex5hHzO_5S-71" style="edgeStyle=orthogonalEdgeStyle;rounded=0;orthogonalLoop=1;jettySize=auto;html=1;exitX=1;exitY=0.5;exitDx=0;exitDy=0;" edge="1" parent="1" source="pR12mr9345Ex5hHzO_5S-72" target="pR12mr9345Ex5hHzO_5S-75">
          <mxGeometry relative="1" as="geometry" />
        </mxCell>
        <mxCell id="pR12mr9345Ex5hHzO_5S-72" value="&lt;b&gt;tabs&lt;/b&gt;" style="rounded=0;whiteSpace=wrap;html=1;fontSize=21;fillColor=#0050ef;fontColor=light-dark(#FFFFFF,#FFFFFF);strokeColor=#001DBC;" vertex="1" parent="1">
          <mxGeometry x="70" y="880" width="240" height="60" as="geometry" />
        </mxCell>
        <mxCell id="pR12mr9345Ex5hHzO_5S-73" value="&lt;b&gt;tabs&lt;/b&gt;" style="rounded=0;whiteSpace=wrap;html=1;fontSize=21;" vertex="1" parent="1">
          <mxGeometry x="490" y="880" width="120" height="60" as="geometry" />
        </mxCell>
        <mxCell id="pR12mr9345Ex5hHzO_5S-74" style="edgeStyle=orthogonalEdgeStyle;rounded=0;orthogonalLoop=1;jettySize=auto;html=1;exitX=1;exitY=0.5;exitDx=0;exitDy=0;" edge="1" parent="1" source="pR12mr9345Ex5hHzO_5S-75" target="pR12mr9345Ex5hHzO_5S-73">
          <mxGeometry relative="1" as="geometry" />
        </mxCell>
        <mxCell id="pR12mr9345Ex5hHzO_5S-75" value="&lt;b&gt;repeats&lt;/b&gt;" style="rounded=0;whiteSpace=wrap;html=1;fontSize=21;fillColor=#e51400;fontColor=light-dark(#FFFFFF,#FFFFFF);strokeColor=default;" vertex="1" parent="1">
          <mxGeometry x="345" y="880" width="120" height="60" as="geometry" />
        </mxCell>
        <mxCell id="pR12mr9345Ex5hHzO_5S-77" value="&lt;font style=&quot;font-size: 21px;&quot;&gt;&lt;b style=&quot;&quot;&gt;All &quot;tabs&quot; and &quot;lyrics&quot; lines are processed the same.&lt;/b&gt;&lt;/font&gt;&lt;div&gt;&lt;span style=&quot;font-size: 21px;&quot;&gt;&lt;b&gt;&lt;br&gt;&lt;/b&gt;&lt;/span&gt;&lt;div&gt;&lt;font style=&quot;font-size: 21px;&quot;&gt;&lt;b&gt;For chords:&lt;br&gt;If by themselves - no pos&lt;/b&gt;&lt;/font&gt;&lt;/div&gt;&lt;div&gt;&lt;font style=&quot;font-size: 21px;&quot;&gt;&lt;b&gt;If with lyrics below - center pos&lt;/b&gt;&lt;/font&gt;&lt;/div&gt;&lt;div&gt;&lt;font style=&quot;font-size: 21px;&quot;&gt;&lt;b style=&quot;&quot;&gt;If lyrics inside - start pos&lt;/b&gt;&lt;/font&gt;&lt;/div&gt;&lt;/div&gt;&lt;div&gt;&lt;font style=&quot;font-size: 21px;&quot;&gt;&lt;b style=&quot;&quot;&gt;&lt;br&gt;&lt;/b&gt;&lt;/font&gt;&lt;/div&gt;&lt;div&gt;&lt;span style=&quot;font-size: 21px;&quot;&gt;&lt;b&gt;The only allowed combinations are:&lt;br&gt;Chords&lt;br&gt;Lyrics&lt;/b&gt;&lt;/span&gt;&lt;/div&gt;&lt;div&gt;&lt;span style=&quot;font-size: 21px;&quot;&gt;&lt;b&gt;Multiline tabs&lt;/b&gt;&lt;/span&gt;&lt;/div&gt;&lt;div&gt;&lt;span style=&quot;font-size: 21px;&quot;&gt;&lt;b&gt;ChordsAndLyrics&lt;/b&gt;&lt;/span&gt;&lt;/div&gt;&lt;div&gt;&lt;span style=&quot;font-size: 21px;&quot;&gt;&lt;b&gt;ChordsAndLyrics with tabs under&lt;/b&gt;&lt;/span&gt;&lt;/div&gt;&lt;div&gt;&lt;span style=&quot;font-size: 21px;&quot;&gt;&lt;b&gt;Chords over lyrics&lt;/b&gt;&lt;/span&gt;&lt;/div&gt;&lt;div&gt;&lt;span style=&quot;font-size: 21px;&quot;&gt;&lt;b&gt;&lt;br&gt;&lt;/b&gt;&lt;/span&gt;&lt;/div&gt;&lt;div&gt;&lt;span style=&quot;font-size: 21px;&quot;&gt;&lt;b&gt;All processing starts with reading and removing repeats&amp;nbsp;&lt;/b&gt;&lt;/span&gt;&lt;/div&gt;" style="text;html=1;align=center;verticalAlign=middle;whiteSpace=wrap;rounded=0;" vertex="1" parent="1">
          <mxGeometry x="770" y="180" width="760" height="410" as="geometry" />
        </mxCell>
      </root>
    </mxGraphModel>
  </diagram>
</mxfile>
